<?xml version="1.0" standalone="no"?>
<!DOCTYPE svg PUBLIC "-//W3C//DTD SVG 20010904//EN"
 "http://www.w3.org/TR/2001/REC-SVG-20010904/DTD/svg10.dtd">
<svg version="1.0" xmlns="http://www.w3.org/2000/svg"
 width="528.000000pt" height="528.000000pt" viewBox="0 0 528.000000 528.000000"
 preserveAspectRatio="xMidYMid meet">
<metadata>
Created by potrace 1.11, written by Peter Selinger 2001-2013
</metadata>
<g transform="translate(0.000000,528.000000) scale(0.100000,-0.100000)"
fill="#000000" stroke="none">
<path d="M3405 4651 c-60 -15 -160 -77 -221 -139 -152 -151 -257 -348 -425
-794 l-74 -198 -172 0 c-160 0 -175 -2 -193 -20 -33 -33 -30 -75 6 -107 23
-21 34 -23 160 -23 74 0 134 -4 134 -8 0 -5 -43 -127 -96 -273 -53 -145 -161
-448 -239 -674 -240 -688 -295 -840 -310 -851 -8 -6 -81 -23 -162 -38 -473
-89 -653 -176 -745 -364 -31 -62 -33 -74 -32 -162 1 -74 6 -108 24 -154 57
-148 230 -237 401 -207 232 40 425 258 593 668 l51 125 90 33 c196 71 389 182
524 301 139 123 297 336 404 546 91 177 111 233 95 266 -7 14 -27 31 -44 38
-55 23 -70 6 -169 -192 -160 -319 -321 -516 -540 -659 -117 -77 -279 -154
-293 -141 -5 5 251 736 468 1336 l147 405 170 5 c149 4 174 7 192 24 11 10 23
27 26 37 7 22 -18 74 -40 83 -9 3 -77 6 -151 6 l-135 0 7 23 c23 72 190 479
228 554 94 188 212 336 305 382 93 47 181 34 238 -34 43 -52 64 -61 102 -45
35 14 56 51 47 83 -11 47 -102 134 -162 156 -56 21 -148 26 -209 12z m-1485
-3272 c0 -23 -91 -234 -132 -306 -57 -102 -160 -211 -235 -249 -104 -52 -252
-43 -311 19 -61 65 -73 181 -26 266 65 121 184 176 524 245 91 19 168 34 173
35 4 1 7 -4 7 -10z"/>
<path d="M4156 4147 c-10 -8 -88 -212 -197 -517 -229 -642 -249 -697 -414
-1155 -239 -664 -245 -683 -238 -702 12 -34 36 -53 68 -53 18 0 42 8 53 18 13
11 75 166 172 436 223 614 278 732 442 951 152 202 280 280 406 246 159 -43
174 -209 51 -561 -189 -540 -213 -625 -213 -775 1 -203 94 -316 262 -316 177
0 302 88 453 318 83 127 259 477 259 515 0 17 -11 35 -31 52 -65 55 -81 39
-203 -207 -155 -314 -242 -435 -354 -495 -104 -55 -194 -41 -223 35 -17 45
-10 174 16 278 13 55 67 228 120 385 140 417 161 510 144 642 -17 135 -85 228
-193 265 -34 12 -82 17 -146 18 -91 0 -100 -2 -170 -37 -41 -20 -101 -60 -132
-88 -32 -28 -58 -46 -58 -38 0 7 25 83 56 168 126 352 194 549 194 564 0 48
-83 83 -124 53z"/>
<path d="M656 3508 c-25 -23 -64 -125 -309 -818 -42 -118 -131 -367 -197 -554
-66 -186 -120 -344 -120 -351 0 -7 9 -24 21 -39 25 -31 76 -35 107 -8 14 11
69 155 162 422 159 457 194 543 293 720 97 175 159 262 258 362 109 112 172
144 262 134 123 -13 172 -74 171 -216 -1 -126 -24 -214 -144 -540 -37 -102
-80 -224 -94 -271 -95 -313 -68 -518 81 -601 43 -24 63 -29 122 -29 201 -1
341 112 517 416 83 144 197 385 197 417 0 58 -75 97 -115 61 -11 -10 -63 -103
-115 -206 -120 -240 -190 -354 -267 -432 -72 -72 -136 -105 -205 -105 -152 0
-161 167 -29 550 33 96 84 245 114 332 72 209 98 337 91 448 -10 160 -51 234
-161 290 -65 33 -73 35 -175 35 -99 0 -110 -2 -171 -32 -36 -18 -95 -57 -132
-87 -36 -31 -69 -56 -72 -56 -3 0 4 21 14 46 26 60 25 70 -9 105 -35 35 -61
37 -95 7z"/>
</g>
</svg>
